<svg width="25" height="25" viewBox="0 0 25 25" fill="none" xmlns="http://www.w3.org/2000/svg">
<path d="M22.927 2.31985C21.5966 0.83428 19.794 0 17.9147 0C16.0355 0 14.2329 0.83428 12.9024 2.31985C12.7494 2.49155 12.6027 2.67301 12.4624 2.86424C12.3223 2.67444 12.1756 2.4944 12.0218 2.32229C10.6858 0.872816 8.89416 0.0694398 7.03358 0.0855422C5.173 0.101645 3.39267 0.935934 2.07682 2.40836C0.760973 3.88078 0.0151196 5.87327 0.000227347 7.95581C-0.0146649 10.0384 0.702599 12.0439 1.99722 13.5398L12.0764 24.8213C12.1786 24.9357 12.3173 25 12.4619 25C12.6064 25 12.7451 24.9357 12.8474 24.8213L22.9265 13.5398C24.2542 12.051 24.9999 10.0334 25 7.92993C25.0001 5.82641 24.2546 3.80878 22.927 2.31985Z" fill="white"/>
</svg>
