<svg width="40" height="40" viewBox="0 0 40 40" fill="none" xmlns="http://www.w3.org/2000/svg">
<path fill-rule="evenodd" clip-rule="evenodd" d="M22.5 13.75H23.9286C27.9728 13.75 31.3628 16.6092 32.2647 20.4554C32.4185 21.1113 32.5 21.796 32.5 22.5C32.5 27.3325 28.6624 31.25 23.9286 31.25H18.702H15.3571C13.7792 31.25 12.5 29.9442 12.5 28.3333V23.9583C12.5 18.3204 16.9772 13.75 22.5 13.75ZM24.2857 33.75H20.0727C21.6186 35.2965 23.7359 36.25 26.0714 36.25H31.298H34.6429C36.2208 36.25 37.5 34.9442 37.5 33.3333V28.9583C37.5 26.3673 36.5544 24.0018 34.9963 22.2017C34.9988 22.3008 35 22.4002 35 22.5C35 28.7132 30.203 33.75 24.2857 33.75Z" fill="white"/>
</svg>
