<svg width="26" height="23" viewBox="0 0 26 23" fill="none" xmlns="http://www.w3.org/2000/svg">
<path d="M24.9919 18.916L19.5594 14.3389C20.8915 12.4482 21.363 10.1674 20.8824 7.9389C20.4018 5.71041 19.0034 3.69307 16.9584 2.27813C14.9133 0.863196 12.3674 0.151524 9.8145 0.281146C7.26156 0.410769 4.88352 1.37245 3.1416 2.97966C1.39968 4.58687 0.418048 6.72506 0.387084 8.97953C0.35612 11.234 1.27804 13.444 2.97402 15.181C4.67001 16.918 7.01919 18.0581 9.56592 18.3803C12.1127 18.7024 14.6754 18.1836 16.7572 16.9244L22.1897 21.5015C22.5926 21.8297 23.121 22.0093 23.661 22.0017C24.201 21.9941 24.7095 21.7998 25.0769 21.4608C25.4443 21.1218 25.6413 20.6651 25.6254 20.1891C25.6095 19.7132 25.382 19.256 24.9919 18.916ZM4.57724 9.43648C4.53065 8.35941 4.8476 7.3042 5.48801 6.40429C6.12842 5.50438 7.06354 4.80018 8.1751 4.38075C9.28667 3.96131 10.5248 3.84548 11.7328 4.0479C12.9409 4.25032 14.0646 4.76189 14.9619 5.51794C15.8593 6.27398 16.4899 7.24053 16.7741 8.29537C17.0583 9.35021 16.9833 10.4459 16.5585 11.444C16.1338 12.4421 15.3783 13.2977 14.3878 13.9026C13.3973 14.5076 12.2161 14.8346 10.9936 14.8425C9.35438 14.853 7.75745 14.2894 6.55414 13.2756C5.35084 12.2617 4.63972 10.8808 4.57724 9.43648Z" fill="white"/>
</svg>
