<svg width="40" height="31" viewBox="0 0 40 31" fill="none" xmlns="http://www.w3.org/2000/svg">
<path d="M31.8388 16.936C31.9045 16.561 31.9374 16.1735 31.9374 15.761C31.9374 15.361 31.9045 14.961 31.8224 14.586L35.1575 12.611C35.4532 12.436 35.5353 12.0985 35.3546 11.8485L32.2002 7.69849C32.0031 7.42349 31.5924 7.33599 31.2309 7.42349L27.3044 8.62349C26.4829 8.14849 25.6122 7.74849 24.6429 7.44849L24.0514 4.27349C23.9857 3.97349 23.6572 3.76099 23.2629 3.76099H16.9541C16.5598 3.76099 16.2477 3.97349 16.182 4.27349L15.5905 7.44849C14.6212 7.74849 13.734 8.16099 12.929 8.62349L9.00249 7.42349C8.64105 7.32349 8.23032 7.42349 8.03318 7.69849L4.89524 11.8485C4.69809 12.111 4.7638 12.436 5.09238 12.611L8.42747 14.586C8.34533 14.961 8.27961 15.3735 8.27961 15.761C8.27961 16.1485 8.31247 16.561 8.39461 16.936L5.05953 18.911C4.7638 19.086 4.68166 19.4235 4.86238 19.6735L8.01675 23.8235C8.21389 24.0985 8.62462 24.186 8.98606 24.0985L12.9126 22.8985C13.734 23.3735 14.6048 23.7735 15.5741 24.0735L16.1655 27.2485C16.2477 27.5485 16.5598 27.761 16.9541 27.761H23.2629C23.6572 27.761 23.9857 27.5485 24.035 27.2485L24.6265 24.0735C25.5958 23.7735 26.4829 23.3735 27.288 22.8985L31.2145 24.0985C31.5759 24.1985 31.9867 24.0985 32.1838 23.8235L35.3382 19.6735C35.5353 19.3985 35.4532 19.086 35.141 18.911L31.8388 16.936ZM20.1085 20.261C16.8555 20.261 14.194 18.236 14.194 15.761C14.194 13.286 16.8555 11.261 20.1085 11.261C23.3614 11.261 26.0229 13.286 26.0229 15.761C26.0229 18.236 23.3614 20.261 20.1085 20.261Z" fill="white"/>
</svg>
