<svg width="67" height="59" viewBox="0 0 67 59" fill="none" xmlns="http://www.w3.org/2000/svg">
<ellipse cx="33.5192" cy="29.2859" rx="33.2687" ry="28.97" fill="#7A1334"/>
<path d="M44.8388 30.273C44.9045 29.8439 44.9374 29.4004 44.9374 28.9283C44.9374 28.4705 44.9045 28.0127 44.8224 27.5835L48.1575 25.3231C48.4532 25.1228 48.5353 24.7366 48.3546 24.4504L45.2002 19.7008C45.0031 19.386 44.5924 19.2859 44.2309 19.386L40.3044 20.7594C39.4829 20.2158 38.6122 19.758 37.6429 19.4147L37.0515 15.7809C36.9857 15.4375 36.6572 15.1943 36.2629 15.1943H29.9541C29.5598 15.1943 29.2477 15.4375 29.182 15.7809L28.5905 19.4147C27.6212 19.758 26.734 20.2301 25.929 20.7594L22.0025 19.386C21.641 19.2716 21.2303 19.386 21.0332 19.7008L17.8952 24.4504C17.6981 24.7509 17.7638 25.1228 18.0924 25.3231L21.4275 27.5835C21.3453 28.0127 21.2796 28.4848 21.2796 28.9283C21.2796 29.3718 21.3125 29.8439 21.3946 30.273L18.0595 32.5334C17.7638 32.7337 17.6817 33.12 17.8624 33.4061L21.0167 38.1558C21.2139 38.4705 21.6246 38.5706 21.9861 38.4705L25.9126 37.0971C26.734 37.6407 27.6048 38.0985 28.5741 38.4419L29.1655 42.0756C29.2477 42.419 29.5598 42.6622 29.9541 42.6622H36.2629C36.6572 42.6622 36.9857 42.419 37.035 42.0756L37.6265 38.4419C38.5958 38.0985 39.4829 37.6407 40.288 37.0971L44.2145 38.4705C44.5759 38.5849 44.9867 38.4705 45.1838 38.1558L48.3382 33.4061C48.5353 33.0914 48.4532 32.7337 48.141 32.5334L44.8388 30.273ZM33.1085 34.0785C29.8555 34.0785 27.194 31.7609 27.194 28.9283C27.194 26.0956 29.8555 23.778 33.1085 23.778C36.3614 23.778 39.0229 26.0956 39.0229 28.9283C39.0229 31.7609 36.3614 34.0785 33.1085 34.0785Z" fill="white"/>
</svg>
