<svg width="67" height="59" viewBox="0 0 67 59" fill="none" xmlns="http://www.w3.org/2000/svg">
<ellipse cx="33.5192" cy="29.2862" rx="33.2687" ry="28.97" fill="#7A1334"/>
<g clip-path="url(#clip0_19_847)">
<path d="M44.8388 30.2733C44.9045 29.8441 44.9373 29.4006 44.9373 28.9285C44.9373 28.4707 44.9045 28.0129 44.8223 27.5837L48.1574 25.3234C48.4531 25.1231 48.5353 24.7368 48.3546 24.4507L45.2002 19.701C45.003 19.3863 44.5923 19.2861 44.2309 19.3863L40.3043 20.7597C39.4829 20.216 38.6122 19.7583 37.6428 19.4149L37.0514 15.7811C36.9857 15.4378 36.6571 15.1946 36.2628 15.1946H29.9541C29.5598 15.1946 29.2476 15.4378 29.1819 15.7811L28.5905 19.4149C27.6212 19.7583 26.734 20.2304 25.929 20.7597L22.0024 19.3863C21.641 19.2718 21.2303 19.3863 21.0331 19.701L17.8952 24.4507C17.698 24.7511 17.7638 25.1231 18.0923 25.3234L21.4274 27.5837C21.3453 28.0129 21.2796 28.485 21.2796 28.9285C21.2796 29.372 21.3124 29.8441 21.3946 30.2733L18.0595 32.5337C17.7638 32.734 17.6816 33.1202 17.8623 33.4063L21.0167 38.156C21.2138 38.4707 21.6246 38.5709 21.986 38.4707L25.9125 37.0973C26.734 37.641 27.6047 38.0988 28.574 38.4421L29.1655 42.0759C29.2476 42.4192 29.5598 42.6624 29.9541 42.6624H36.2628C36.6571 42.6624 36.9857 42.4192 37.035 42.0759L37.6264 38.4421C38.5957 38.0988 39.4829 37.641 40.2879 37.0973L44.2145 38.4707C44.5759 38.5852 44.9866 38.4707 45.1838 38.156L48.3381 33.4063C48.5353 33.0916 48.4531 32.734 48.141 32.5337L44.8388 30.2733ZM33.1084 34.0787C29.8555 34.0787 27.194 31.7611 27.194 28.9285C27.194 26.0959 29.8555 23.7783 33.1084 23.7783C36.3614 23.7783 39.0229 26.0959 39.0229 28.9285C39.0229 31.7611 36.3614 34.0787 33.1084 34.0787Z" fill="white"/>
</g>
<defs>
<clipPath id="clip0_19_847">
<rect width="39.4296" height="34.3348" fill="white" transform="translate(13.3936 11.761)"/>
</clipPath>
</defs>
</svg>
