<svg width="33" height="24" viewBox="0 0 33 24" fill="none" xmlns="http://www.w3.org/2000/svg">
<path fill-rule="evenodd" clip-rule="evenodd" d="M13.25 0.75H15.1071C20.3646 0.75 24.7716 3.60918 25.9442 7.45543C26.1441 8.11134 26.25 8.79596 26.25 9.5C26.25 14.3325 21.2612 18.25 15.1071 18.25H8.31262H3.96428C1.91294 18.25 0.25 16.9442 0.25 15.3333V10.9583C0.25 5.32043 6.0703 0.75 13.25 0.75ZM15.5714 20.75H10.0945C12.1042 22.2965 14.8567 23.25 17.8928 23.25H24.6874H29.0357C31.087 23.25 32.75 21.9442 32.75 20.3333V15.9583C32.75 13.3673 31.5207 11.0018 29.4952 9.20169C29.4984 9.30081 29.5 9.40025 29.5 9.49999C29.5 15.7132 23.264 20.75 15.5714 20.75Z" fill="white"/>
</svg>
